<svg fill="none" height="64" viewBox="0 0 40 64" width="40" xmlns="http://www.w3.org/2000/svg" xmlns:xlink="http://www.w3.org/1999/xlink"><clipPath id="a"><path d="m0 0h40v64h-40z" transform="matrix(-1 0 0 1 40 0)"/></clipPath><g clip-path="url(#a)" fill="#717c6f"><path d="m9.10039 62.1004c-1.7123 1.7123-4.48848 1.7123-6.20078 0s-1.7123-4.4885 0-6.2008zm20.66931-33.0708 3.1004-3.1004 6.2007 6.2007-3.1004 3.1004zm-23.7697 29.9704-3.10039-3.1004 26.87009-26.87 3.1004 3.1003 3.1003 3.1004-26.87001 26.8701z"/><path d="m2.89961 8.23052c-1.7123-1.7123-1.7123-4.48849 0-6.20078 1.7123-1.712303 4.48849-1.712303 6.20079 0zm33.07089 20.66928 3.1003 3.1004-6.2007 6.2008-3.1004-3.1004zm-29.9705-23.76967 3.1004-3.10039 26.8701 26.87006-3.1004 3.1004-3.1004 3.1004-26.87009-26.87008z"/></g></svg>