<svg fill="none" height="64" viewBox="0 0 40 64" width="40" xmlns="http://www.w3.org/2000/svg" xmlns:xlink="http://www.w3.org/1999/xlink"><clipPath id="a"><path d="m0 0h40v64h-40z"/></clipPath><g clip-path="url(#a)" fill="#717c6f"><path d="m30.8996 62.1004c1.7123 1.7123 4.4885 1.7123 6.2008 0s1.7123-4.4885 0-6.2008zm-20.6693-33.0708-3.10036-3.1004-6.200778 6.2007 3.100388 3.1004zm23.7697 29.9704 3.1004-3.1004-26.8701-26.87-3.10036 3.1003-3.10039 3.1004 26.87005 26.8701z"/><path d="m37.1004 8.23052c1.7123-1.7123 1.7123-4.48849 0-6.20078-1.7123-1.712303-4.4885-1.712303-6.2008 0zm-33.07085 20.66928-3.100386 3.1004 6.200786 6.2008 3.10035-3.1004zm29.97045-23.76967-3.1004-3.10039-26.87005 26.87006 3.1004 3.1004 3.10035 3.1004 26.8701-26.87008z"/></g></svg>