<svg fill="none" height="32" viewBox="0 0 31 32" width="31" xmlns="http://www.w3.org/2000/svg" xmlns:xlink="http://www.w3.org/1999/xlink"><mask id="a" height="32" maskUnits="userSpaceOnUse" width="32" x="0" y="0"><path d="m0 .223633h31.0049v30.999967h-31.0049z" fill="#fff"/></mask><g mask="url(#a)"><path d="m15.472.252042c-8.61971.029208-15.5086416 7.036468-15.3959294 15.653858.004868.4329.0284594.8647.0700244 1.2957.041564.431.101104.8597.178991 1.2855.077513.4258.173375.8478.286836 1.2657.113087.4179.244148.8301.392438 1.2372.14828.4066.31342.8066.49541 1.1994.18198.3928.38007.7774.59464 1.1537.21456.3759.44448.7425.68975 1.099.24565.3569.50552.7025.78037 1.0373.04307.0528.08201.1086.11684.1674.03482.0588.06515.1198.09062.1827.02583.0633.04643.1281.06253.1943.0161.0663.02696.1337.03295.2015.00599.0682.00674.1359.00262.2041-.00412.0681-.01348.1355-.02771.2022-.0146.0666-.0337.1322-.05766.1958-.02434.0641-.0528.1255-.08613.185l-1.3312 2.3846c-.36884.6613.23254 1.4428.9661 1.2563l4.50812-1.1477c.15727-.0397.31642-.0517.47781-.0349.16139.0165.31492.0603.46059.1311.99681.4842 2.03409.8564 3.11139 1.1163 1.0773.2598 2.1696.4018 3.2776.4257 8.6665.1959 15.7798-6.7275 15.8067-15.3948.027-8.5717-6.9297-15.525791-15.5037-15.496958zm.0531 28.992158c-.2216 0-.4433-.0052-.6646-.0161s-.4426-.0273-.6632-.0491c-.2205-.0217-.4404-.0486-.6598-.0812s-.4377-.0704-.6553-.1139c-.2172-.043-.4336-.0917-.6486-.1456-.2149-.0536-.4287-.1127-.6407-.1771-.2123-.0644-.4227-.1341-.6313-.2086-.2089-.0745-.4156-.1543-.6205-.2393-.2048-.0846-.40738-.1745-.60772-.2692-.20071-.0948-.39842-.1944-.59389-.2988-.19585-.1049-.38869-.2139-.57854-.3281-.19023-.1138-.37746-.2321-.56207-.3553-.18423-.1232-.36547-.2509-.54334-.3831-.17824-.1318-.35311-.2681-.52424-.4089-.1715-.1404-.33926-.2854-.50365-.434-.16401-.1491-.32465-.3018-.48155-.4587-.15653-.1566-.30968-.3172-.45834-.4812-.14904-.1644-.29358-.3322-.43437-.5037-.1408-.1711-.2771-.346-.40891-.5238-.13219-.1783-.25988-.3595-.38308-.5437-.12319-.1843-.24152-.3715-.35573-.5617-.11384-.1899-.22318-.3827-.32765-.5782-.10448-.1955-.20409-.3936-.29882-.5939-.09512-.2003-.18461-.4029-.26961-.6077-.08501-.2049-.16477-.4116-.23928-.6205-.07452-.2086-.14417-.419-.20858-.631-.0644-.2123-.12357-.4257-.17749-.6407-.05355-.2153-.10223-.4314-.14567-.6489-.04306-.2172-.08088-.4355-.11346-.6549-.03258-.2191-.05991-.4393-.08163-.6598-.02172-.2206-.03782-.4415-.04868-.6628-.01086-.2217-.01648-.443-.01648-.6647 0-7.48021 6.0655-13.54458 13.54678-13.54458 7.4529 0 13.4997 6.01719 13.5465 13.45728.0472 7.4656-6.0794 13.6315-13.5465 13.6315z" fill="#fff9e2"/></g><path d="m13.1038 9.11451.0064.01235.8081 1.60234c.0434.0861.0797.1752.1086.267.0292.0921.0505.1861.0647.2816.0139.0954.0199.1913.0184.2879-.0015.0963-.0109.1921-.0277.2872-.0172.0948-.0416.188-.0734.279-.0322.091-.0712.1786-.1176.2636-.0461.0846-.0989.1652-.158.2412-.0592.0764-.124.1475-.1947.213-.0704.0652-.1348.136-.194.2116s-.1116.1554-.1577.2397c-.0464.0838-.0853.1711-.1175.2617-.0322.0903-.0569.1827-.0742.2771-.0172.0944-.0269.1895-.0288.2853-.0023.0959.0037.1914.0168.2865.0135.0947.0345.188.0626.2797.0284.0918.064.1805.1067.2666.4849.9736 1.3252 2.3161 2.6077 3.2844.0712.0543.1464.103.2251.1461.079.043.1603.0797.2445.1104.0843.0311.1704.0555.2584.0734.088.018.1767.0292.2662.0341.0895.0045.179.0026.2685-.006.0891-.009.1775-.024.2644-.046.0869-.0218.1719-.0502.2546-.0847.0828-.0344.1625-.0752.2393-.1217l.5205-.3164c.1164-.0711.2396-.1281.3696-.1707.1295-.0431.2625-.0708.3984-.0832.1359-.0127.2719-.0097.407.0086.1356.0188.267.0521.3947.1008l2.0682.786c.055.0209.1086.0445.1614.0707.0524.0262.1037.0547.1535.0858.0498.0314.0981.0648.1445.1007.0465.036.091.0742.1337.1146.0431.0401.0835.0824.1221.1269.0386.0442.0749.0903.1089.1382.0341.0479.066.0974.0952.1483s.0558.1033.0797.1569c.0244.0535.0457.1082.0644.164.0188.0554.0345.112.0476.1693s.0236.1149.0311.1733c.0075.0585.0119.1169.0138.1757.0015.0588.0004.1172-.0033.176-.0042.0584-.0113.1168-.021.1748-.0098.0577-.0221.115-.0378.1719-.0154.0566-.0334.1123-.0543.1674-.024.0633-.0517.1247-.0828.185l-.5729 1.1106c-.0464.0899-.1.1753-.161.2558-.0607.0809-.1277.1558-.2015.2254-.0734.0693-.152.1322-.2363.1884-.0842.0561-.1722.1044-.2647.146-.0921.0412-.1872.0741-.2854.0992-.0981.0251-.1973.042-.298.0502-.1008.0086-.2015.0082-.3022-.0004s-.2-.0254-.2981-.0509c-3.248-.8403-10.98962-3.7611-11.61347-12.5927-.00599-.0872-.00599-.1745.00075-.2617.00636-.0869.01947-.1734.03857-.2584.01909-.0854.04418-.1689.07564-.25053.03145-.08126.06852-.16027.11121-.23666.04307-.07602.091-.14866.14454-.21794.05355-.0689.11159-.13368.1745-.19434.06329-.06066.13031-.11646.20109-.16738.07114-.05093.14566-.09624.22355-.13631l1.05482-.54147c.0521-.02696.1056-.0513.1603-.07301.0547-.02135.1101-.04045.1666-.05655.0566-.0161.1139-.02958.1715-.04007.0581-.01048.1161-.01834.1749-.02321.0584-.0045.1172-.00674.176-.00562.0588.00075.1172.00487.1756.01124.0584.00674.1165.01647.1738.02883.0576.01236.1142.02733.17.04531.0561.01797.1112.03857.1651.06216.0539.02321.1064.04905.158.07789.0513.02845.1011.05953.1494.09286.0484.03333.0952.0689.1397.1071.045.03782.088.07788.1288.1202.0409.04231.0794.0865.1161.13256s.0708.09361.1026.14304.0614.09998.088.15241z" fill="#fff9e2"/></svg>