<svg fill="none" height="32" viewBox="0 0 55 32" width="55" xmlns="http://www.w3.org/2000/svg" xmlns:xlink="http://www.w3.org/1999/xlink"><mask id="a" height="32" maskUnits="userSpaceOnUse" width="55" x="0" y="0"><path d="m0 0h55v31.447h-55z" fill="#fff"/></mask><g mask="url(#a)"><path d="m26.9118 31.145h3.2864s.9933-.1088 1.4989-.6535c.4678-.4997.4499-1.4379.4499-1.4379s-.0651-4.3925 1.9839-5.0401c2.0184-.637 4.6102 4.2465 7.3565 6.1256 2.0768 1.4206 3.6546 1.1095 3.6546 1.1095l7.3466-.1036s3.8431-.2355 2.0211-3.2452c-.1473-.2462-1.0617-2.2255-5.4622-6.2935-4.6068-4.2592-3.9884-3.5678 1.56-10.9329 3.38-4.48475 4.7316-7.22443 4.3082-8.39555-.4021-1.11604-2.8876-.82144-2.8876-.82144l-8.2649.04844s-.6117-.08294-1.0682.18778c-.4446.26673-.7299.88315-.7299.88315s-1.3098 3.47154-3.0555 6.42422c-3.6826 6.2272-5.1569 6.5569-5.7587 6.1688-1.3994-.8998-1.0484-3.6222-1.0484-5.55372 0-6.03606.9183-8.55213-1.7908-9.20305-.9011-.215644-1.5606-.3596285-3.8604-.3835153-2.95-.0305219-5.4495.0106162-6.8621.6986883-.9422.458497-1.6675 1.482977-1.2242 1.540697.5467.07233 1.7842.33243 2.4411 1.22287.8493 1.14657.8181 3.72833.8181 3.72833s.4877 7.1043-1.138 7.9881c-1.118.6058-2.6468-.6303-5.9305-6.28351-1.6807-2.89295-2.952-6.09445-2.952-6.09445s-.2442-.59518-.6808-.91433c-.5295-.38684-1.27264-.50959-1.27264-.50959l-7.85809.04711s-1.179744.03517-1.613024.54475c-.384842.45584-.030522 1.39406-.030522 1.39406s6.153506 14.33606 13.119176 21.56316c6.3904 6.6259 13.644 6.1906 13.644 6.1906z" fill="#fff9e2"/></g></svg>