<svg fill="none" height="883" viewBox="0 0 1512 883" width="1512" xmlns="http://www.w3.org/2000/svg"><path d="m778.34 137.191c124.048-37.3581 261.03-92.7116 426.67-66.5597 89.99 14.1981 158.54 48.8757 225 83.2197 88.37 45.616 161.83 81.183 282.27 62.477 96.86-14.997 184.19-24.142 291.12-6.398 96.35 15.979 181.89 47.912 243.1 91.09 11.97 8.427 12.75 17.005 7.14 23.795l-51.59 602.974c22.81 23.921-37.56 46.198-71.56 22.251-39.34-27.693-91.36-50.199-149.13-64.687l-45.43-9.511c-41.73-7.058-85.37-9.924-128.62-7.655-106.38 5.493-188.68 38.649-303.9 13.043-157.08-34.929-250.86-152.58-432.21-148.845-155.614 3.284-271.201 70.787-406.977 97.988-156.201 31.261-300.769 4.177-435.369-58.59-71.665-33.49-142.0263-75.698-231.40514-95.602-117.88086-26.298-228.42086-.972-303.12086 39.141-24.658 13.282-59.413 1.265-69.661-14.167l-4.38 1.034 53.434-624.5977c-4.245-7.6147-2.415-15.8809 9.499-22.2655 76.281-40.9741 188.551-67.1476 309.78133-56.222161 109.97567 9.946761 198.38867 49.423761 280.44267 89.039161 74.927 36.1542 156.477 80.1802 259.269 87.3522 91.675 6.359 174.077-16.729 245.627-38.304z" fill="#717c6f"/></svg>